<?xml version="1.0" encoding="utf-8"?>
<!-- Generator: Adobe Adobe Illustrator 29.2.0, SVG Export Plug-In . SVG Version: 6.00 Build 0)  -->
<svg version="1.1" id="Layer_1" xmlns="http://www.w3.org/2000/svg" xmlns:xlink="http://www.w3.org/1999/xlink" x="0px" y="0px"
	 width="2960px" height="500px" viewBox="0 0 2960 500" style="enable-background:new 0 0 2960 500;" xml:space="preserve">
<style type="text/css">
	.st0{fill:#0F172A;}
	.st1{fill:#22C55E;}
	.st2{fill:#3B82F6;}
</style>
<g>
	<polygon class="st0" points="57.66,459 248.13,41 329.35,41 397.64,192.46 344.27,245.5 288.12,119.5 140.38,459 	"/>
	<polygon class="st0" points="435.64,459 386.38,346.15 438.74,281.37 519.81,459 	"/>
	<path class="st1" d="M252.12,253.84l-24.47,61.42l87.04,95.86c0,0,150.42-229.81,309.38-325.45
		c-132.59,14.92-314.85,229.6-314.85,229.6L252.12,253.84z"/>
	<g>
		<path class="st0" d="M912.78,451.76l-31.29-83.43H707.4l-31.28,83.43h-52.05l141.37-361.8h58.01l141.38,361.8H912.78z
			 M866.09,327.06l-71.64-190.98l-71.64,190.98H866.09z"/>
		<path class="st0" d="M1166.62,441.28c-17.39,11.07-39.14,17.58-60.05,17.69c-38.58,0.2-74.28-21.43-74.28-76.64V230.65h-51.17
			v-28.41l48.07-7.97h3.1v-74.32h44.2v74.32h78.29v36.39h-78.29v151.68c0,28.25,18.61,36.94,39.68,36.83
			c13.49-0.07,27.94-3.71,39.19-8.07L1166.62,441.28z"/>
		<path class="st0" d="M1396.09,441.28c-17.39,11.07-39.14,17.58-60.05,17.69c-38.58,0.2-74.28-21.43-74.28-76.64V230.65h-51.17
			v-28.41l48.07-7.97h3.1v-74.32h44.2v74.32h78.29v36.39h-78.29v151.68c0,28.25,18.61,36.94,39.68,36.83
			c13.49-0.07,27.94-3.71,39.19-8.07L1396.09,441.28z"/>
		<path class="st0" d="M1565.88,186.11c80.74,0,120.08,60.72,120.25,135.95c0.01,3.77-0.12,7.51-0.36,11.21l-198.17-0.01
			c0.14,1.67,0.3,3.33,0.49,4.97c5.24,46.85,34.89,79.01,79.14,79.01c27.63,0,55.92-7.97,84.76-23.92l11.25,30.37
			c-30.18,23.29-65.97,35.32-97.35,35.32c-75.25,0-124.91-60.99-124.91-136.45C1440.97,246.57,1490.64,185.58,1565.88,186.11
			L1565.88,186.11z M1489.41,296.87h150.43c-6.1-41.61-28.85-69-72.62-69C1525.42,227.85,1497.12,255.51,1489.41,296.87z"/>
		<path class="st0" d="M1978.53,283.27v168.49h-44.2V283.27c0-38.05-23-55.89-52.91-55.89c-24.93,0-57.63,12.21-84.42,36.05v188.34
			h-44.21V193.34h44.21V226c28.54-27.32,63.62-39.9,93.22-39.9C1937.33,186.1,1978.53,217.23,1978.53,283.27z"/>
		<path class="st0" d="M2292.58,451.77h-44.2v-33.58c-27.25,28.44-59.36,40.81-89.25,40.81c-65.22,0-111.64-59.66-111.67-136.45
			c0.03-76.64,45.74-136.93,113.95-136.45c28.56,0.01,61.24,13.87,86.97,40.79V89.97h44.2V451.77z M2163.05,417.24
			c26.16,0,59.9-13.94,85.33-40.87V268.74c-25.69-27.02-58.26-40.86-86.79-40.87c-42.02,0-68.41,38.7-67.95,94.68
			C2093.19,378.75,2119.01,417.23,2163.05,417.24L2163.05,417.24z"/>
		<path class="st0" d="M2491.56,186.11c80.74,0,120.08,60.72,120.25,135.95c0.01,3.77-0.12,7.51-0.36,11.21l-198.17-0.01
			c0.14,1.67,0.3,3.33,0.49,4.97c5.24,46.85,34.89,79.01,79.14,79.01c27.63,0,55.92-7.97,84.76-23.92l11.25,30.37
			c-30.18,23.29-65.97,35.32-97.35,35.32c-75.25,0-124.91-60.99-124.91-136.45C2366.65,246.57,2416.32,185.58,2491.56,186.11
			L2491.56,186.11z M2415.09,296.87h150.43c-6.1-41.61-28.85-69-72.62-69C2451.1,227.85,2422.8,255.51,2415.09,296.87z"/>
		<path class="st0" d="M2902.34,451.76h-51.04l-78.03-102.3l-74.62,102.3h-50.55l100.46-134.78l-94.25-123.65l50.95-0.01
			l71.82,94.11l68.61-94.11l50.45,0.01l-94.34,126.58L2902.34,451.76z"/>
	</g>
</g>
</svg>
